<svg width="576" height="731" viewBox="0 0 576 731" fill="none" xmlns="http://www.w3.org/2000/svg">
<g filter="url(#filter0_d_2285_8794)">
<mask id="mask0_2285_8794" style="mask-type:alpha" maskUnits="userSpaceOnUse" x="4" y="0" width="710" height="723">
<ellipse cx="359" cy="361.5" rx="355" ry="361.5" fill="white"/>
</mask>
<g mask="url(#mask0_2285_8794)">
<ellipse cx="359" cy="361.5" rx="355" ry="361.5" fill="white"/>
<path d="M496.138 888.766C435.103 944.62 424.948 862.536 415.206 668.681L566.035 681.793L624.895 802.605L695.711 756.715L723.301 784.811L665.361 856.924C628.089 892.984 605.594 895.646 560.516 845.685L496.138 888.766Z" fill="#2B1E1E"/>
<path d="M502.876 332.519C521.422 296.802 565.182 283.314 600.617 302.392C631.939 319.256 647.229 356.59 636.06 390.452C621.74 433.863 608.153 466.763 578.878 504.85L451.415 431.632L502.876 332.519Z" fill="#303030"/>
<path d="M504.416 442.978L487.861 438.295L501.657 489.804L547.641 454.216C572.708 424.594 583.12 405.324 596.385 367.119L528.328 329.658C499.817 368.992 479.584 397.088 513.613 424.247L504.416 442.978Z" fill="#FBC4C3"/>
<path d="M512.044 386.407C511.526 389.186 511.55 392.042 512.115 394.812C512.68 397.581 513.775 400.21 515.338 402.549C516.901 404.887 518.901 406.889 521.224 408.441C523.546 409.992 526.146 411.063 528.875 411.591C531.604 412.119 534.409 412.095 537.129 411.519C539.848 410.944 542.43 409.828 544.727 408.237C547.023 406.645 548.989 404.609 550.513 402.243C552.036 399.878 553.087 397.23 553.606 394.452L532.825 390.429L512.044 386.407Z" fill="#E24C4C"/>
<path d="M528.887 373.102C528.251 374.192 528.208 375.581 528.767 376.963C529.326 378.344 530.442 379.606 531.87 380.47C533.297 381.334 534.919 381.73 536.378 381.57C537.837 381.41 539.014 380.708 539.651 379.618L534.269 376.36L528.887 373.102Z" fill="#E4A8A7"/>
<mask id="mask1_2285_8794" style="mask-type:alpha" maskUnits="userSpaceOnUse" x="401" y="235" width="303" height="459">
<path d="M570.633 685.539C505.946 695.709 476.275 696.995 407.848 685.539C399.379 616.959 403.249 578.392 419.804 509.471C391.308 415.375 397.521 353.271 426.242 235.069L462.11 250.99C447.537 322.824 451.211 362.252 469.467 431.74L496.138 439.232L502.576 479.503L548.56 453.28C587.666 474.57 605.986 493.412 617.537 567.536L673.638 515.091L703.068 551.615C635.991 652.056 609.392 662.051 570.633 643.395V685.539Z" fill="#87AEDF"/>
</mask>
<g mask="url(#mask1_2285_8794)">
<path d="M570.633 685.539C505.946 695.709 476.275 696.995 407.848 685.539C399.379 616.959 403.249 578.392 419.804 509.471C391.308 415.375 397.521 353.271 426.242 235.069L462.11 250.99C447.537 322.824 451.211 362.252 469.467 431.74L496.138 439.232L502.576 479.503L548.56 453.28C587.666 474.57 605.986 493.412 617.537 567.536L673.638 515.091L703.068 551.615C635.991 652.056 609.392 662.051 570.633 643.395V685.539Z" fill="#87AEDF"/>
<rect width="5.55355" height="46.5347" transform="matrix(0.802016 0.597303 -0.583346 0.812223 503.971 473.883)" fill="white"/>
<path d="M470.388 468.264L496.139 439.232L500.738 441.105L502.577 479.503L470.388 468.264Z" fill="#6397DF"/>
<path d="M533.846 501.979L551.321 450.47L502.577 479.503L533.846 501.979Z" fill="#6397DF"/>
</g>
<ellipse cx="32.2343" cy="23.3814" rx="32.2343" ry="23.3814" transform="matrix(0.959843 0.280538 -0.271288 0.962498 430.65 170.448)" fill="#FBC4C3"/>
<path d="M527.692 272.29C528.096 269.422 532.238 269.422 532.643 272.29L535.642 293.557C535.869 295.17 537.553 296.138 539.061 295.523L558.794 287.475C561.465 286.385 563.553 289.938 561.3 291.741L544.451 305.23C543.201 306.23 543.201 308.132 544.451 309.133L561.3 322.621C563.553 324.424 561.465 327.978 558.794 326.888L539.061 318.84C537.553 318.225 535.869 319.193 535.642 320.806L532.643 342.073C532.238 344.941 528.096 344.941 527.692 342.073L524.692 320.806C524.465 319.193 522.781 318.225 521.273 318.84L501.541 326.888C498.869 327.978 496.782 324.424 499.034 322.621L515.884 309.133C517.134 308.132 517.134 306.23 515.884 305.23L499.034 291.741C496.782 289.938 498.869 286.385 501.541 287.475L521.273 295.523C522.781 296.138 524.465 295.17 524.692 293.557L527.692 272.29Z" fill="#F04F4F"/>
<ellipse cx="529.462" cy="306.463" rx="7.05515" ry="7.18433" fill="#D9C03E"/>
<mask id="mask2_2285_8794" style="mask-type:alpha" maskUnits="userSpaceOnUse" x="524" y="341" width="25" height="28">
<ellipse cx="11.1411" cy="13.9266" rx="11.1411" ry="13.9266" transform="matrix(0.803272 0.595624 -0.580964 0.813939 535.312 337.15)" fill="white"/>
</mask>
<g mask="url(#mask2_2285_8794)">
<ellipse cx="11.1411" cy="13.9266" rx="11.1411" ry="13.9266" transform="matrix(0.803272 0.595624 -0.580964 0.813939 535.312 337.15)" fill="white"/>
<ellipse cx="3.72168" cy="4.63428" rx="3.72168" ry="4.63428" transform="matrix(0.988204 0.0860579 -0.079723 1.00484 529.066 352.135)" fill="black"/>
</g>
<mask id="mask3_2285_8794" style="mask-type:alpha" maskUnits="userSpaceOnUse" x="547" y="359" width="26" height="27">
<ellipse cx="11.1411" cy="13.9266" rx="11.1411" ry="13.9266" transform="matrix(0.803272 0.595624 -0.580964 0.813939 559.111 354.781)" fill="white"/>
</mask>
<g mask="url(#mask3_2285_8794)">
<ellipse cx="11.1411" cy="13.9266" rx="11.1411" ry="13.9266" transform="matrix(0.803272 0.595624 -0.580964 0.813939 559.111 354.781)" fill="white"/>
<ellipse cx="3.71968" cy="4.63612" rx="3.71968" ry="4.63612" transform="matrix(0.977637 0.172795 -0.165409 0.993486 551.934 367.119)" fill="black"/>
</g>
<path d="M576.482 369.756C574.962 371.529 572.853 366.53 568.377 362.55C563.901 358.57 558.752 357.117 560.272 355.344C561.792 353.572 566.653 355.361 571.129 359.34C575.605 363.32 578.002 367.983 576.482 369.756Z" fill="#303030"/>
<path d="M550.73 352.898C549.211 354.671 547.102 349.672 542.626 345.693C538.149 341.713 533.001 340.259 534.521 338.487C536.04 336.714 540.901 338.503 545.377 342.483C549.854 346.463 552.25 351.126 550.73 352.898Z" fill="#303030"/>
<ellipse cx="34.3594" cy="21.3912" rx="34.3594" ry="21.3912" transform="matrix(-0.777617 0.628738 0.614899 0.788606 -16.1387 709.525)" fill="#2B1E1E"/>
<path d="M221.283 888.766C282.318 944.62 292.472 862.536 302.215 668.681L151.386 681.793L92.5261 802.605L21.71 756.715L-5.88065 784.811L52.0598 856.924C89.3315 892.984 111.827 895.646 156.904 845.685L221.283 888.766Z" fill="#2B1E1E"/>
<path d="M213.005 442.978L229.559 438.295L215.764 489.804L169.779 454.216C150.231 421.438 142.873 410.199 121.72 375.548L189.093 329.658C217.603 368.992 237.836 397.088 203.808 424.247L213.005 442.978Z" fill="#FBC4C3"/>
<path d="M207.215 388.28C207.734 391.059 207.71 393.915 207.145 396.685C206.579 399.454 205.484 402.083 203.921 404.422C202.358 406.76 200.358 408.762 198.036 410.314C195.713 411.865 193.113 412.936 190.384 413.464C187.655 413.992 184.85 413.968 182.131 413.392C179.411 412.817 176.829 411.701 174.533 410.11C172.236 408.518 170.27 406.482 168.747 404.117C167.223 401.751 166.172 399.104 165.653 396.325L186.434 392.303L207.215 388.28Z" fill="#E24C4C"/>
<path d="M194.051 374.975C194.687 376.065 194.73 377.454 194.171 378.836C193.612 380.218 192.496 381.479 191.068 382.343C189.641 383.207 188.019 383.603 186.56 383.443C185.101 383.283 183.924 382.581 183.287 381.491L188.669 378.233L194.051 374.975Z" fill="#E4A8A7"/>
<mask id="mask4_2285_8794" style="mask-type:alpha" maskUnits="userSpaceOnUse" x="14" y="235" width="307" height="459">
<path d="M146.787 685.539C211.474 695.709 241.145 696.995 309.572 685.539C326.873 545.441 324.424 371.892 291.178 235.069L255.31 250.99C269.883 322.824 266.209 362.252 247.953 431.74L212.769 442.041L209.091 465.455L168.86 453.28C129.754 474.57 111.434 493.412 99.8829 567.536L43.7819 515.091L14.3519 551.615C81.4296 652.056 108.028 662.051 146.787 643.395V685.539Z" fill="#DECD34"/>
</mask>
<g mask="url(#mask4_2285_8794)">
<path d="M146.787 685.539C211.474 695.709 241.145 696.995 309.572 685.539C326.873 545.441 324.424 371.892 291.178 235.069L255.31 250.99C269.883 322.824 266.209 362.252 247.953 431.74L212.769 442.041L209.091 465.455L168.86 453.28C129.754 474.57 111.434 493.412 99.8829 567.536L43.7819 515.091L14.3519 551.615C81.4296 652.056 108.028 662.051 146.787 643.395V685.539Z" fill="#DECD34"/>
</g>
<ellipse cx="32.2344" cy="23.3814" rx="32.2344" ry="23.3814" transform="matrix(-0.959843 0.280538 0.271288 0.962498 286.77 170.448)" fill="#FBC4C3"/>
<ellipse cx="32.3311" cy="23.3132" rx="32.3311" ry="23.3132" transform="matrix(-0.868415 0.495837 0.482336 0.875987 23.1312 464.518)" fill="#FBC4C3"/>
<mask id="mask5_2285_8794" style="mask-type:alpha" maskUnits="userSpaceOnUse" x="176" y="345" width="25" height="28">
<ellipse cx="11.1411" cy="13.9265" rx="11.1411" ry="13.9265" transform="matrix(-0.803272 0.595625 0.580964 0.813939 189.465 340.896)" fill="white"/>
</mask>
<g mask="url(#mask5_2285_8794)">
<ellipse cx="11.1411" cy="13.9265" rx="11.1411" ry="13.9265" transform="matrix(-0.803272 0.595625 0.580964 0.813939 189.465 340.896)" fill="white"/>
<ellipse cx="3.72166" cy="4.63428" rx="3.72166" ry="4.63428" transform="matrix(-0.988204 0.0860584 0.0797225 1.00484 195.711 355.881)" fill="#461378"/>
</g>
<mask id="mask6_2285_8794" style="mask-type:alpha" maskUnits="userSpaceOnUse" x="152" y="363" width="25" height="27">
<ellipse cx="11.1411" cy="13.9265" rx="11.1411" ry="13.9265" transform="matrix(-0.803272 0.595625 0.580964 0.813939 165.667 358.527)" fill="white"/>
</mask>
<g mask="url(#mask6_2285_8794)">
<ellipse cx="11.1411" cy="13.9265" rx="11.1411" ry="13.9265" transform="matrix(-0.803272 0.595625 0.580964 0.813939 165.667 358.527)" fill="white"/>
<ellipse cx="3.71968" cy="4.63611" rx="3.71968" ry="4.63611" transform="matrix(-0.977637 0.172795 0.165409 0.993486 172.844 370.865)" fill="#461378"/>
</g>
<path d="M148.296 373.502C149.815 375.275 151.924 370.276 156.4 366.296C160.877 362.317 166.025 360.863 164.505 359.09C162.986 357.318 158.125 359.107 153.649 363.087C149.172 367.066 146.776 371.729 148.296 373.502Z" fill="#303030"/>
<path d="M174.047 356.645C175.567 358.417 177.675 353.418 182.152 349.439C186.628 345.459 191.776 344.006 190.257 342.233C188.737 340.46 183.876 342.249 179.4 346.229C174.924 350.209 172.527 354.872 174.047 356.645Z" fill="#303030"/>
<path fill-rule="evenodd" clip-rule="evenodd" d="M164.672 288.971C161.895 284.546 156.099 283.274 151.725 286.13C147.365 288.978 146.064 294.852 148.806 299.272C147.216 297.495 144.543 297.098 142.472 298.45L139.529 300.371C137.217 301.881 136.533 305.001 138.001 307.341L139.31 309.428L114.779 325.446C105.068 331.787 102.193 344.891 108.358 354.715L121.774 376.092L191.059 330.852L166.48 291.687L166.407 291.735L164.672 288.971Z" fill="#303030"/>
</g>
</g>
<defs>
<filter id="filter0_d_2285_8794" x="0" y="0" width="718" height="731" filterUnits="userSpaceOnUse" color-interpolation-filters="sRGB">
<feFlood flood-opacity="0" result="BackgroundImageFix"/>
<feColorMatrix in="SourceAlpha" type="matrix" values="0 0 0 0 0 0 0 0 0 0 0 0 0 0 0 0 0 0 127 0" result="hardAlpha"/>
<feOffset dy="4"/>
<feGaussianBlur stdDeviation="2"/>
<feComposite in2="hardAlpha" operator="out"/>
<feColorMatrix type="matrix" values="0 0 0 0 0 0 0 0 0 0 0 0 0 0 0 0 0 0 0.25 0"/>
<feBlend mode="normal" in2="BackgroundImageFix" result="effect1_dropShadow_2285_8794"/>
<feBlend mode="normal" in="SourceGraphic" in2="effect1_dropShadow_2285_8794" result="shape"/>
</filter>
</defs>
</svg>
